:FULLY-SPECIFIED
:DEGREES
157
root -0.567874014377594 -0.567874014377594 -0.567874014377594 -0.5678755879732001 -0.5678755879732001 -0.5678755879732001
lhipjoint -9.671654586443837e-08 -1.5341245206083327e-07 1.0672170578144923e-06
lfemur -21.333289910212766 -1.1018197566451289 -15.402489804823539
ltibia 22.790509062087693 -1.3420763187210776e-06 1.2783375957935494e-06
lfoot -13.732358288593682 -8.745405818776796e-07 9.54051751570053
ltoes -53.39624010081445 -5.879268050904037e-07 1.5853881411865378e-06
rhipjoint 1.1005675908711953e-07 6.870210827458292e-07 -1.494104084495789e-06
rfemur -9.496503776688968 3.8237315695567213 9.658926528925518
rtibia 1.441183788694442 5.482355182207351e-08 -8.392560171302724e-07
rfoot -14.112547962137747 2.6134983199707523e-06 -18.373895301345886
rtoes -6.635773811703862 1.193528741323261e-06 -7.55997797567166e-07
lowerback 30.92625303345524 0.22218613374179413 -1.4141495797944141
upperback 1.5441962748697513 0.229549024306215 2.5123760166058817
thorax -14.363133088633528 0.2666097107839835 3.3863815369526997
lowerneck -11.457395592112624 -2.029057957114028 -1.9248847656666397
upperneck 23.5797988923852 -3.0151462414105206 2.3060364286666197
head 9.370881229926802 -1.331763944747426 0.7745436119620046
lclavicle -1.4085775951116125e-07 5.4855408257763046e-08 -1.0938974842598547e-06
lhumerus 77.38496412635561 5.0745987537745165 82.40286505294303
lradius 22.278839100794528 -1.4625299802842145e-07 1.2706058454739739e-06
lwrist -1.345478240008371e-06 -53.589295397704866 3.244296559501289e-07
lhand -4.562975323145072 2.6246558075710764e-07 -26.656099019086014
lfingers 7.125022823272814 9.845282338726802e-08 3.18924141240953e-07
lthumb 21.213298854421275 -1.2803152392500461e-07 2.20318914769186
rclavicle 1.398304276268298e-07 4.3880174074018323e-07 -1.3740421654916584e-06
rhumerus 72.95961626121264 -2.141172737575437 -54.905749473427704
rradius 33.25278621949084 -2.4481701360735344e-07 -3.5201735979059424e-06
rwrist 3.838920340528982e-07 39.658998226964215 8.581594530462699e-07
rhand -6.972260092956778 2.0321462048512455e-07 -36.68780446630613
rfingers 7.125022396385991 5.1024341088409163e-08 -3.1892353057445414e-07
rthumb 18.897492480477187 1.5447771905696147e-06 -65.78980959509936
158
root -0.567874014377594 -0.567874014377594 -0.567874014377594 -0.5678755879732001 -0.5678755879732001 -0.5678755879732001
lhipjoint -9.671654586443837e-08 -1.5341245206083327e-07 1.0672170578144923e-06
lfemur -19.827438103900054 -2.213499958574229 -15.079145234420551
ltibia 21.33222098560766 -1.1578060742518104e-06 1.283091939820276e-06
lfoot -13.914657745088615 -7.072322100802198e-08 10.723491765794753
ltoes -52.90323363142835 -6.103343471545006e-07 4.985933189747027e-07
rhipjoint 1.1005675908711953e-07 6.870210827458292e-07 -1.494104084495789e-06
rfemur -8.021675543360102 4.1047246982373995 9.80754803017041
rtibia -0.3275349181392179 -2.1758378131391532e-08 -8.568924218389247e-07
rfoot -13.471850604781164 6.35914098124577e-07 -18.6445056887145
rtoes -5.8905045506070906 1.2437805892906363e-06 -8.923058881064622e-07
lowerback 29.56060452023538 0.2902693793472019 -1.5899863966740455
upperback 1.7563006491902098 0.21927643313472903 2.2958048052899405
thorax -13.675853841137458 0.2706667897901182 3.296345342983357
lowerneck -11.457395592112624 -2.029057957114028 -1.9248847656666397
upperneck 23.5797988923852 -3.0151462414105206 2.3060364286666197
head 9.370881229926802 -1.331763944747426 0.7745436119620046
lclavicle -1.4085775951116125e-07 5.4855408257763046e-08 -1.0938974842598547e-06
lhumerus 76.30931861510531 10.951304187824066 81.80574259494382
lradius 21.491902270666095 -1.7691334160223014e-07 1.1466818679756733e-06
lwrist -1.5463663483550985e-06 -56.59390244378264 3.7286255741739394e-07
lhand -4.562975323145072 2.6246558075710764e-07 -26.656099019086014
lfingers 7.125022823272814 9.845282338726802e-08 3.18924141240953e-07
lthumb 21.213298854421275 -1.2803152392500461e-07 2.20318914769186
rclavicle 1.398304276268298e-07 4.3880174074018323e-07 -1.3740421654916584e-06
rhumerus 70.95082347536605 -7.36152153837909 -53.874875852186854
rradius 31.809748247880144 -9.996162763927942e-08 -3.6128691084310126e-06
rwrist 4.076339587502751e-07 41.095089896189 9.112358371262844e-07
rhand -6.972260092956778 2.0321462048512455e-07 -36.68780446630613
rfingers 7.125022396385991 5.1024341088409163e-08 -3.1892353057445414e-07
rthumb 18.897492480477187 1.5447771905696147e-06 -65.78980959509936
159
root -0.567874014377594 -0.567874014377594 -0.567874014377594 -0.5678755879732001 -0.5678755879732001 -0.5678755879732001
lhipjoint -9.671654586443837e-08 -1.5341245206083327e-07 1.0672170578144923e-06
lfemur -18.74377224301688 -2.9462012447113537 -14.83937656624913
ltibia 20.37072501086121 -9.54489447016942e-07 4.1718323068146373e-07
lfoot -14.127237137721506 -9.649770334680373e-07 11.640842520388118
ltoes -52.549634738096785 -1.0515540727857197e-06 6.95953606957626e-07
rhipjoint 1.1005675908711953e-07 6.870210827458292e-07 -1.494104084495789e-06
rfemur -7.242760770411848 4.5161483999691105 9.913473165139907
rtibia -1.0825031278986867 -5.351318873774799e-08 -8.638331554870016e-07
rfoot -13.240976550456393 6.934635634197268e-07 -18.77907407574209
rtoes -5.338544157173667 4.4449004828801216e-07 -6.091626308098495e-07
lowerback 28.46407741314507 0.37432171395380526 -1.7032443800477854
upperback 2.0209707996933215 0.2505996139673414 2.027965126846826
thorax -13.067625495547823 0.285570262559086 3.0990484986183686
lowerneck -11.457395592112624 -2.029057957114028 -1.9248847656666397
upperneck 23.5797988923852 -3.0151462414105206 2.3060364286666197
head 9.370881229926802 -1.331763944747426 0.7745436119620046
lclavicle -1.4085775951116125e-07 5.4855408257763046e-08 -1.0938974842598547e-06
lhumerus 73.94563603017403 16.143252848615393 79.34938800335381
lradius 21.431289464424108 6.744221168749913e-07 1.2987127888606286e-06
lwrist -1.6430726146668065e-06 -57.860929855576686 3.9618391100813156e-07
lhand -4.562975323145072 2.6246558075710764e-07 -26.656099019086014
lfingers 7.125022823272814 9.845282338726802e-08 3.18924141240953e-07
lthumb 21.213298854421275 -1.2803152392500461e-07 2.20318914769186
rclavicle 1.398304276268298e-07 4.3880174074018323e-07 -1.3740421654916584e-06
rhumerus 67.79177902196511 -12.286673618679613 -52.03110385178235
rradius 31.209214110390526 -2.0937840823561358e-07 -3.0463993938881348e-06
rwrist 4.1979235418663677e-07 41.79854132409237 9.384161958786979e-07
rhand -6.972260092956778 2.0321462048512455e-07 -36.68780446630613
rfingers 7.125022396385991 5.1024341088409163e-08 -3.1892353057445414e-07
rthumb 18.897492480477187 1.5447771905696147e-06 -65.78980959509936
160
root -0.567874014377594 -0.567874014377594 -0.567874014377594 -0.5678755879732001 -0.5678755879732001 -0.5678755879732001
lhipjoint -9.671654586443837e-08 -1.5341245206083327e-07 1.0672170578144923e-06
lfemur -17.963081620884424 -3.3907788981177185 -14.666926242537356
ltibia 19.781783411940395 -1.1595964466486624e-06 1.2488428110105286e-06
lfoot -14.399809496929205 -1.6189282861911308e-06 12.353274793276407
ltoes -52.31672187230477 -1.0610122790752687e-06 6.859512968176097e-07
rhipjoint 1.1005675908711953e-07 6.870210827458292e-07 -1.494104084495789e-06
rfemur -6.9020026327199115 4.947296834250173 10.00399963862561
rtibia -1.2228635153424487 -3.8961718514615725e-08 -8.653032333052115e-07
rfoot -13.261750570816986 2.8227488953526085e-06 -18.76798184852999
rtoes -4.953061940796487 1.3271271010517003e-06 -6.600581212670032e-07
lowerback 27.60738727611788 0.4571309007706134 -1.7577356292461472
upperback 2.256065697481749 0.303465331504093 1.7587601576216492
thorax -12.58759894690568 0.3045172073167014 2.8528203924828204
lowerneck -11.457395592112624 -2.029057957114028 -1.9248847656666397
upperneck 23.5797988923852 -3.0151462414105206 2.3060364286666197
head 9.370881229926802 -1.331763944747426 0.7745436119620046
lclavicle -1.4085775951116125e-07 5.4855408257763046e-08 -1.0938974842598547e-06
lhumerus 70.57698673152373 20.7110374787098 75.36110394319996
lradius 21.78900183918331 -2.472832920406726e-07 1.6203213182527369e-06
lwrist -1.6501392473913945e-06 -57.94961303176014 3.978855840960269e-07
lhand -4.562975323145072 2.6246558075710764e-07 -26.656099019086014
lfingers 7.125022823272814 9.845282338726802e-08 3.18924141240953e-07
lthumb 21.213298854421275 -1.2803152392500461e-07 2.20318914769186
rclavicle 1.398304276268298e-07 4.3880174074018323e-07 -1.3740421654916584e-06
rhumerus 63.878920740815715 -16.740836344383567 -49.43605543890604
rradius 31.102820253689238 7.655172740620986e-07 -3.210931268670864e-06
rwrist 4.195279610370761e-07 41.78350124754 9.378259867075681e-07
rhand -6.972260092956778 2.0321462048512455e-07 -36.68780446630613
rfingers 7.125022396385991 5.1024341088409163e-08 -3.1892353057445414e-07
rthumb 18.897492480477187 1.5447771905696147e-06 -65.78980959509936
